<svg width="462" height="425" viewBox="0 0 462 425" fill="none" xmlns="http://www.w3.org/2000/svg">
<path d="M182.99 108.461C155.57 108.083 126.912 107.023 116.01 106.539C137.991 107.175 182.159 108.449 182.99 108.461Z" stroke="#E6EEEF" stroke-width="3"/>
<path d="M182.5 107.5C181.7 106.3 169.5 79.3333 163.5 66" stroke="#E6EEEF" stroke-width="3"/>
<line x1="135.019" y1="1.10094" x2="1.01878" y2="125.101" stroke="#E6EEEF" stroke-width="3"/>
<line x1="460.019" y1="299.101" x2="326.019" y2="423.101" stroke="#E6EEEF" stroke-width="3"/>
<path d="M1.00983 300.5L135.01 422.5" stroke="#E6EEEF" stroke-width="3"/>
<line x1="325.01" y1="2.89084" x2="459.01" y2="124.891" stroke="#E6EEEF" stroke-width="3"/>
<line x1="458.5" y1="122.992" x2="459.5" y2="299.992" stroke="#E6EEEF" stroke-width="3"/>
<line x1="1.5" y1="124" x2="1.5" y2="301" stroke="#E6EEEF" stroke-width="3"/>
<line x1="134" y1="422.5" x2="328" y2="422.5" stroke="#E6EEEF" stroke-width="3"/>
<line x1="134.008" y1="1.50002" x2="326.008" y2="2.50002" stroke="#E6EEEF" stroke-width="3"/>
<line x1="66.4667" y1="64.598" x2="229.467" y2="2.598" stroke="#E6EEEF" stroke-width="3"/>
<line x1="230.469" y1="422.597" x2="391.469" y2="361.597" stroke="#E6EEEF" stroke-width="3"/>
<line x1="67.5315" y1="360.597" x2="228.531" y2="421.597" stroke="#E6EEEF" stroke-width="3"/>
<line x1="230.536" y1="2.59908" x2="392.537" y2="64.5968" stroke="#E6EEEF" stroke-width="3"/>
<line x1="68.6383" y1="361.629" x2="1.63834" y2="216.629" stroke="#E6EEEF" stroke-width="3"/>
<line x1="458.365" y1="215.622" x2="391.365" y2="362.622" stroke="#E6EEEF" stroke-width="3"/>
<line x1="67.3563" y1="65.6396" x2="1.35679" y2="205.64" stroke="#E6EEEF" stroke-width="3"/>
<line x1="458.63" y1="211.61" x2="393.63" y2="65.6101" stroke="#E6EEEF" stroke-width="3"/>
<line x1="67.4999" y1="65.0174" x2="66.4883" y2="152.017" stroke="#E6EEEF" stroke-width="3"/>
<line x1="68.0188" y1="149.101" x2="1.01879" y2="211.101" stroke="#E6EEEF" stroke-width="3"/>
<line x1="65.9781" y1="63.8627" x2="115.978" y2="106.863" stroke="#E6EEEF" stroke-width="3"/>
<line x1="115.5" y1="106.023" x2="114.5" y2="170.023" stroke="#E6EEEF" stroke-width="3"/>
<line x1="65.5081" y1="150.589" x2="115.508" y2="168.589" stroke="#E6EEEF" stroke-width="3"/>
<line x1="115.014" y1="169.106" x2="67.0136" y2="213.106" stroke="#E6EEEF" stroke-width="3"/>
<line y1="212.5" x2="69" y2="212.5" stroke="#E6EEEF" stroke-width="3"/>
<line x1="2.02647" y1="212.906" x2="67.0265" y2="273.906" stroke="#E6EEEF" stroke-width="3"/>
<line x1="115.542" y1="255.399" x2="66.5423" y2="274.399" stroke="#E6EEEF" stroke-width="3"/>
<line x1="65.4996" y1="272.966" x2="67.5226" y2="360.965" stroke="#E6EEEF" stroke-width="3"/>
<line x1="67.9995" y1="212.882" x2="114.999" y2="254.882" stroke="#E6EEEF" stroke-width="3"/>
<line x1="114.5" y1="253.977" x2="115.5" y2="317.977" stroke="#E6EEEF" stroke-width="3"/>
<line x1="67.9749" y1="360.905" x2="114.975" y2="316.905" stroke="#E6EEEF" stroke-width="3"/>
<path d="M69.5 65C141.1 65 161.667 65 163 65L230 4V65L182 109" stroke="#E6EEEF" stroke-width="3"/>
<line x1="115" y1="316.5" x2="184" y2="316.5" stroke="#E6EEEF" stroke-width="3"/>
<line x1="182.371" y1="316.609" x2="162.371" y2="361.609" stroke="#E6EEEF" stroke-width="3"/>
<path d="M69.5 361H165" stroke="#E6EEEF" stroke-width="3"/>
<line x1="164.017" y1="360.898" x2="229.017" y2="420.898" stroke="#E6EEEF" stroke-width="3"/>
<line x1="182.002" y1="315.884" x2="231.002" y2="359.884" stroke="#E6EEEF" stroke-width="3"/>
<line x1="230.5" y1="360" x2="230.5" y2="421" stroke="#E6EEEF" stroke-width="3"/>
<path d="M229.982 361.347L280 316" stroke="#E6EEEF" stroke-width="3"/>
<line x1="278.377" y1="316.405" x2="297.377" y2="360.405" stroke="#E6EEEF" stroke-width="3"/>
<path d="M228 422.298L296 360" stroke="#E6EEEF" stroke-width="3"/>
<line x1="296" y1="359.5" x2="392" y2="359.5" stroke="#E6EEEF" stroke-width="3"/>
<line x1="278.978" y1="316.5" x2="346.978" y2="315.5" stroke="#E6EEEF" stroke-width="3"/>
<line x1="346.051" y1="315.599" x2="393.029" y2="359.909" stroke="#E6EEEF" stroke-width="3"/>
<path d="M345 255V314" stroke="#E6EEEF" stroke-width="3"/>
<path d="M344 255L394.33 273.31" stroke="#E6EEEF" stroke-width="3"/>
<line x1="393.015" y1="211.105" x2="344.015" y2="256.105" stroke="#E6EEEF" stroke-width="3"/>
<path d="M394.5 271.017L393.5 357.017" stroke="#E6EEEF" stroke-width="3"/>
<line x1="393.18" y1="273.111" x2="458.788" y2="212.683" stroke="#E6EEEF" stroke-width="3"/>
<line x1="392" y1="211.5" x2="458" y2="211.5" stroke="#E6EEEF" stroke-width="3"/>
<line x1="345.5" y1="106" x2="345.5" y2="167" stroke="#E6EEEF" stroke-width="3"/>
<line x1="277" y1="106.5" x2="347" y2="106.5" stroke="#E6EEEF" stroke-width="3"/>
<line x1="345.049" y1="165.928" x2="392.049" y2="211.928" stroke="#E6EEEF" stroke-width="3"/>
<line x1="230.001" y1="63.8827" x2="278.001" y2="106.883" stroke="#E6EEEF" stroke-width="3"/>
<path d="M392 64.5L345 107.109" stroke="#E6EEEF" stroke-width="3"/>
<path d="M392 64.5L393 151" stroke="#E6EEEF" stroke-width="3"/>
<path d="M346.498 167L393 150" stroke="#E6EEEF" stroke-width="3"/>
<path d="M277.913 106.321L298.115 60.9999" stroke="#E6EEEF" stroke-width="3"/>
<line x1="392.017" y1="149.898" x2="457.017" y2="209.898" stroke="#E6EEEF" stroke-width="3"/>
<line x1="231.001" y1="2.88257" x2="298.001" y2="62.8826" stroke="#E6EEEF" stroke-width="3"/>
<line x1="298.016" y1="62.5001" x2="389.016" y2="63.5001" stroke="#E6EEEF" stroke-width="3"/>
</svg>
